<?xml version="1.0" encoding="utf-8"?>
<!-- Generator: Adobe Illustrator 19.1.1, SVG Export Plug-In . SVG Version: 6.00 Build 0)  -->
<svg version="1.1" id="Layer_1" xmlns="http://www.w3.org/2000/svg" xmlns:xlink="http://www.w3.org/1999/xlink" x="0px" y="0px"
	 viewBox="-415 217 128 128" style="enable-background:new -415 217 128 128;" xml:space="preserve">
<style type="text/css">
	.st0{opacity:0.6;fill:#D1D1D1;enable-background:new    ;}
	.st1{fill:url(#SVGID_1_);}
	.st2{fill:#35D7BB;}
	.st3{fill:#FFFFFF;}
</style>
<path class="st0" d="M-294.3,345h-108.5c-4,0-7.3-3.2-7.3-7.3V229.2c0-4,3.2-7.3,7.3-7.3h108.5c4,0,7.3,3.2,7.3,7.3v108.5
	C-287,341.7-290.2,345-294.3,345z"/>
<linearGradient id="SVGID_1_" gradientUnits="userSpaceOnUse" x1="-352.625" y1="341.75" x2="-352.625" y2="217">
	<stop  offset="0" style="stop-color:#2A374B"/>
	<stop  offset="0.9944" style="stop-color:#2F3C55"/>
	<stop  offset="1" style="stop-color:#2F3C55"/>
</linearGradient>
<path class="st1" d="M-297.2,341.8h-110.9c-3.8,0-6.9-3.1-6.9-6.9V223.9c0-3.8,3.1-6.9,6.9-6.9h110.9c3.8,0,6.9,3.1,6.9,6.9v110.9
	C-290.3,338.6-293.4,341.8-297.2,341.8z"/>
<g>
	<polyline class="st2" points="-405.3,290 -299.5,290 -299.5,289.4 -405.3,289.4 	"/>
	<path class="st3" d="M-405.1,268.1h3.8c4.6,0,7.1,2.4,7.1,6.6c0,4.2-2.5,6.7-7,6.7h-3.9V268.1z M-401.4,280c3.5,0,5.3-2,5.3-5.3
		c0-3.3-1.7-5.2-5.3-5.2h-1.7V280H-401.4z"/>
	<rect x="-390.2" y="268.1" class="st3" width="1.9" height="13.3"/>
	<polygon class="st3" points="-383.5,268.1 -381.6,268.1 -381.6,279.9 -375,279.9 -375,281.4 -383.5,281.4 	"/>
	<polygon class="st3" points="-371.7,268.1 -369.7,268.1 -369.7,279.9 -363.2,279.9 -363.2,281.4 -371.7,281.4 	"/>
	<rect x="-359.8" y="268.1" class="st3" width="1.9" height="13.3"/>
	<path class="st3" d="M-353.1,268.1h2l5.5,8.3l1.6,2.8h0.1c-0.1-1.3-0.3-2.8-0.3-4.2v-6.9h1.8v13.3h-2l-5.4-8.4l-1.6-2.7h-0.1
		c0.1,1.3,0.2,2.8,0.2,4.1v6.9h-1.8V268.1z"/>
	<path class="st3" d="M-331.5,267.8c2,0,3.4,0.8,4.3,1.6l-1.1,1.1c-0.8-0.7-1.7-1.2-3.2-1.2c-3.1,0-5,2.1-5,5.4c0,3.3,1.8,5.4,5,5.4
		c1.1,0,2.1-0.3,2.7-0.8v-3.5h-3.2v-1.4h4.9v5.6c-1,0.9-2.7,1.5-4.7,1.5c-4,0-6.8-2.5-6.8-6.9C-338.5,270.5-335.6,267.8-331.5,267.8
		z"/>
	<polygon class="st3" points="-322.8,268.1 -314.1,268.1 -314.1,269.5 -320.8,269.5 -320.8,273.7 -315.1,273.7 -315.1,275.1 
		-320.8,275.1 -320.8,279.9 -313.9,279.9 -313.9,281.4 -322.8,281.4 	"/>
	<path class="st3" d="M-301.7,281.4l-3.6-5.6h-2.7v5.6h-1.9v-13.3h4.7c3.1,0,5.3,1,5.3,3.7c0,2.1-1.3,3.3-3.4,3.8l3.8,5.8H-301.7z
		 M-308.1,274.4h2.5c2.3,0,3.6-0.8,3.6-2.6c0-1.7-1.3-2.4-3.6-2.4h-2.5V274.4z"/>
</g>
</svg>
