<?xml version="1.0" encoding="utf-8"?>
<!-- Generator: Adobe Illustrator 19.1.1, SVG Export Plug-In . SVG Version: 6.00 Build 0)  -->
<svg version="1.1" id="Layer_1" xmlns="http://www.w3.org/2000/svg" xmlns:xlink="http://www.w3.org/1999/xlink" x="0px" y="0px"
	 viewBox="-467 269 24 24" style="enable-background:new -467 269 24 24;" xml:space="preserve">
<style type="text/css">
	.st0{fill:url(#SVGID_1_);}
	.st1{fill:#FFFFFF;}
</style>
<g>
	<linearGradient id="SVGID_1_" gradientUnits="userSpaceOnUse" x1="-455" y1="293" x2="-455" y2="269">
		<stop  offset="0" style="stop-color:#2A374B"/>
		<stop  offset="0.9944" style="stop-color:#2F3C55"/>
		<stop  offset="1" style="stop-color:#2F3C55"/>
	</linearGradient>
	<path class="st0" d="M-445.6,293h-18.8c-1.4,0-2.6-1.2-2.6-2.7v-18.6c0-1.5,1.2-2.7,2.6-2.7h18.8c1.4,0,2.6,1.2,2.6,2.7v18.6
		C-443,291.8-444.2,293-445.6,293z"/>
	<g>
		<path class="st1" d="M-460.6,273.3h4.3c5.3,0,8.1,2.7,8.1,7.6c0,4.9-2.8,7.8-8,7.8h-4.4V273.3z M-456.5,287.1c4,0,6-2.3,6-6.2
			c0-3.9-2-6-6-6h-1.9v12.2H-456.5z"/>
	</g>
</g>
</svg>
